<svg width="23" height="17" viewBox="0 0 23 17" fill="none" xmlns="http://www.w3.org/2000/svg">
<path fill-rule="evenodd" clip-rule="evenodd" d="M21 1.31818L11.4996 9L2 1.31818C2.38828 1.12095 2.82743 1 3.30159 1H19.6975C20.1711 1 20.6101 1.12095 21 1.31818ZM21.6615 15C21.8699 14.629 22 14.2073 22 13.7524V3.37781C22 2.86999 21.8456 2.40006 21.5893 2L15 7.66982L21.6615 15ZM14.1105 8.00009L11.9431 9.86896C11.8163 9.97772 11.6585 10.032 11.5 10.032C11.3415 10.032 11.1836 9.97772 11.0569 9.86896L8.88899 8L2 15.592C2.41292 15.8472 2.89685 16 3.42021 16H19.5798C20.1031 16 20.5872 15.8472 21 15.592L14.1105 8.00009ZM1 3.37785C1 2.86999 1.15455 2.40005 1.41085 2L8 7.66859L1.33871 15C1.1295 14.629 1 14.2073 1 13.7524V3.37785Z" fill="white"/>
<path d="M11.4996 9L11.1852 9.38879L11.4996 9.64301L11.8139 9.3888L11.4996 9ZM21 1.31818L21.3144 1.70698L21.9155 1.22097L21.2257 0.872025L21 1.31818ZM2 1.31818L1.77356 0.872394L1.08565 1.22182L1.68561 1.70697L2 1.31818ZM21.6615 15L21.2915 15.3363L21.7578 15.8494L22.0974 15.2449L21.6615 15ZM21.5893 2L22.0103 1.73026L21.6996 1.24542L21.2631 1.62099L21.5893 2ZM15 7.66982L14.6739 7.29082L14.2845 7.6259L14.63 8.00609L15 7.66982ZM11.9431 9.86896L12.2687 10.2484L12.2696 10.2476L11.9431 9.86896ZM14.1105 8.00009L14.4807 7.66408L14.1531 7.30308L13.784 7.62142L14.1105 8.00009ZM11.0569 9.86896L10.7304 10.2477L10.7313 10.2484L11.0569 9.86896ZM8.88899 8L9.21547 7.6213L8.84627 7.30301L8.51871 7.66401L8.88899 8ZM2 15.592L1.62972 15.256L1.22566 15.7013L1.73718 16.0174L2 15.592ZM21 15.592L21.2629 16.0173L21.7743 15.7012L21.3703 15.256L21 15.592ZM1.41085 2L1.73694 1.62096L1.30045 1.24546L0.989848 1.73027L1.41085 2ZM8 7.66859L8.37006 8.00482L8.71554 7.62459L8.32608 7.28955L8 7.66859ZM1.33871 15L0.903181 15.2456L1.24322 15.8486L1.70877 15.3362L1.33871 15ZM11.8139 9.3888L21.3144 1.70698L20.6856 0.929379L11.1852 8.6112L11.8139 9.3888ZM1.68561 1.70697L11.1852 9.38879L11.814 8.61121L2.31439 0.929393L1.68561 1.70697ZM3.30159 0.5C2.74064 0.5 2.22441 0.643384 1.77356 0.872394L2.22644 1.76397C2.55215 1.59852 2.91422 1.5 3.30159 1.5V0.5ZM19.6975 0.5H3.30159V1.5H19.6975V0.5ZM21.2257 0.872025C20.7739 0.643475 20.2581 0.5 19.6975 0.5V1.5C20.0841 1.5 20.4463 1.59843 20.7743 1.76434L21.2257 0.872025ZM21.5 13.7524C21.5 14.1097 21.3982 14.4478 21.2256 14.7551L22.0974 15.2449C22.3416 14.8101 22.5 14.3049 22.5 13.7524H21.5ZM21.5 3.37781V13.7524H22.5V3.37781H21.5ZM21.1683 2.26974C21.3776 2.59639 21.5 2.97371 21.5 3.37781H22.5C22.5 2.76627 22.3136 2.20372 22.0103 1.73026L21.1683 2.26974ZM15.3261 8.04883L21.9154 2.37901L21.2631 1.62099L14.6739 7.29082L15.3261 8.04883ZM22.0315 14.6637L15.37 7.33355L14.63 8.00609L21.2915 15.3363L22.0315 14.6637ZM12.2696 10.2476L14.437 8.37875L13.784 7.62142L11.6166 9.49029L12.2696 10.2476ZM11.5 10.532C11.7726 10.532 12.0473 10.4384 12.2687 10.2484L11.6175 9.48947C11.5854 9.51707 11.5444 9.53203 11.5 9.53203V10.532ZM10.7313 10.2484C10.9527 10.4384 11.2274 10.532 11.5 10.532V9.53203C11.4556 9.53203 11.4146 9.51705 11.3824 9.48947L10.7313 10.2484ZM8.56251 8.3787L10.7304 10.2477L11.3833 9.49026L9.21547 7.6213L8.56251 8.3787ZM2.37028 15.928L9.25927 8.33599L8.51871 7.66401L1.62972 15.256L2.37028 15.928ZM3.42021 15.5C2.9963 15.5 2.60258 15.3766 2.26282 15.1667L1.73718 16.0174C2.22327 16.3177 2.79741 16.5 3.42021 16.5V15.5ZM19.5798 15.5H3.42021V16.5H19.5798V15.5ZM20.7371 15.1667C20.3976 15.3766 20.0037 15.5 19.5798 15.5V16.5C20.2025 16.5 20.7768 16.3177 21.2629 16.0173L20.7371 15.1667ZM13.7402 8.3361L20.6297 15.928L21.3703 15.256L14.4807 7.66408L13.7402 8.3361ZM0.989848 1.73027C0.68657 2.20364 0.5 2.76618 0.5 3.37785H1.5C1.5 2.97379 1.62253 2.59647 1.83186 2.26973L0.989848 1.73027ZM8.32608 7.28955L1.73694 1.62096L1.08477 2.37904L7.67392 8.04763L8.32608 7.28955ZM1.70877 15.3362L8.37006 8.00482L7.62994 7.33235L0.96865 14.6638L1.70877 15.3362ZM0.5 13.7524C0.5 14.3045 0.657555 14.81 0.903181 15.2456L1.77424 14.7544C1.60145 14.448 1.5 14.1101 1.5 13.7524H0.5ZM0.5 3.37785V13.7524H1.5V3.37785H0.5Z" fill="black"/>
</svg>
